<?xml version="1.0" encoding="utf-8"?>
<!-- Generator: Adobe Illustrator 28.2.0, SVG Export Plug-In . SVG Version: 6.00 Build 0)  -->
<svg version="1.1" id="Layer_1" xmlns="http://www.w3.org/2000/svg" xmlns:xlink="http://www.w3.org/1999/xlink" x="0px" y="0px"
	 viewBox="0 0 1151 1280" style="enable-background:new 0 0 1151 1280;" xml:space="preserve">
<style type="text/css">
	.st0{fill:#FFFFFF;}
</style>
<g transform="translate(0.000000,1280.000000) scale(0.100000,-0.100000)">
	<path class="st0" d="M4667,12785c-445-56-828-228-1102-494c-71-70-82-104-45-141c38-38,68-26,165,60c85,75,134,107,88,58
		c-60-66-175-271-263-468l-42-95l-124-100c-68-55-124-104-124-110c1-5,20-32,43-58l43-48l27,21c15,12,27,20,27,17c0-2-25-71-56-153
		c-160-431-317-1106-458-1979c-20-121-39-236-42-255s-22-73-42-119l-37-83l-135-2c-123-2-143-5-230-35c-52-18-131-52-175-75
		c-44-24-104-48-133-55c-174-37-323-179-440-420c-31-64-81-154-111-201c-173-264-316-642-395-1040c-108-544-124-1037-45-1449
		c45-235,135-536,195-651c80-154,204-279,317-320c34-12,173-79,309-148l246-125l31,22c38,28,38,65,4-335c-33-404-38-771-10-878
		c38-149,107-248,265-379c318-263,680-387,1233-423l97-6l60-101c33-56,119-221,191-367l131-265l193,7c105,3,194,5,195,3
		c7-6-146-87-423-224c-290-143-458-223-970-456c-430-196-715-338-748-373c-22-23-39-67-76-193l-48-164l-1094-5
		c-602-3-1102-9-1112-14C25,156,0,109,0,80c0-12,13-35,29-51L59,0l1162,2l1163,3l61,208l60,207l45,27c43,26,401,195,725,343
		c844,385,1258,592,1508,756l97,64l412,15c227,8,414,12,416,10c7-7-55-80-118-139c-186-172-1059-498-2330-870c-124-37-230-68-236-70
		c-8-3-6-27,7-81c10-43,21-80,24-83c3-4,95,8,203,26c220,37,233,37,315,18c144-34,170-148,81-347c-19-42-34-79-34-83
		c0-3,559-5,1242-4l1242,3l313,1540c172,847,313,1545,313,1552c0,15-105,67-169,84c-28,7-51,17-51,22s29,163,65,351
		c58,306,125,673,125,682c0,19,184-28,322-81c175-68,315-170,371-273c66-121,56-292-39-681c-122-501-486-1492-881-2406
		c-74-170-137-318-140-327c-4-15,6-13,68,12c120,50,359,128,444,145c44,9,119,17,166,18c140,1,196-40,206-150c7-81-18-193-72-316
		l-43-97h2173c1195,0,2181,3,2190,6c19,8,45,55,45,84c0,12-13,35-29,51l-29,29H9406H7361l9,30c54,187,21,366-84,456
		c-72,62-132,79-286,78c-113,0-152-4-239-27c-58-15-105-26-106-24c-1,1,60,151,135,332c354,853,617,1594,739,2080
		c73,292,98,542,68,662c-77,299-385,495-937,597c-426,78-1033,86-1638,20c-84-9-155-15-157-12c-2,2,0,33,5,68c5,36,18,159,30,273
		c28,279,65,424,177,687c25,57,60,134,78,171l34,66l143,6c494,20,948,309,1368,872l82,110l106,6c137,8,239,36,377,104
		c281,138,528,404,729,787c128,242,265,616,348,946l43,172h281h280l23-41c42-74,138-166,209-201l67-33l457-3l458-3l26,26
		c21,21,25,33,22,68l-3,42l57,7c160,20,311,155,423,379c266,533,221,1379-97,1801c-127,167-296,250-441,217c-48-11-797-30-797-20
		c0,2,15,22,34,45l33,41l5,233l4,232h-305h-306l-182-166l-183-167v-84v-85l-37,24c-35,21-49,23-173,23c-122,0-140-2-183-24
		c-27-13-61-40-76-62c-25-34-34-59-59-163c-6-25-15-32-53-42c-71-17-137-54-195-107c-128-117-200-293-238-586c-13-98-18-115-38-129
		c-13-8-55-47-94-86c-91-92-154-214-188-365l-23-105l-51-33c-90-57-148-171-172-340c-21-145,21-343,110-516c22-44,40-85,40-93
		c0-46-124-370-211-554c-54-112-185-350-194-350c-5,0-647,319-652,324c-3,3,16,58,42,122c26,65,76,206,113,313c36,108,74,204,84,214
		c13,13,18,31,17,60c-1,25,23,130,59,262c54,195,124,478,164,665l14,65l80,8c440,42,785,317,836,666c37,249-112,474-321,488
		c-88,7-168-15-310-83l-113-54l6,43c34,240,44,818,17,992c-37,246-113,400-275,560c-205,202-515,344-948,434c-131,27-132,28-84,34
		c27,4,166,7,309,7s258,2,255,5c-11,12-548,147-638,161C5136,12797,4802,12803,4667,12785z M4953,12644c-26-11-59-12-155-6
		c-120,7-121,7-53,13c39,3,108,6,155,6C4981,12658,4984,12658,4953,12644z M4555,12451c-184-100-488-297-721-467
		c-62-46-114-81-114-78c0,2,13,31,29,62c95,189,257,368,392,435c107,52,255,83,414,86l70,1L4555,12451z M5100,12475
		c727-81,1204-328,1356-703c96-238,99-801,8-1384c-5-28-1-41,15-57c32-32,59-26,156,40c108,73,229,133,310,154c102,26,138,19,203-40
		c76-68,106-188,78-308c-63-271-329-468-688-512c-49-6-61-4-84,14c-34,27-54,27-89-1c-25-19-38-22-115-19c-85,3-88,2-109-25
		c-16-20-20-36-16-54c10-42,31-54,105-61c39-3,73-8,75-11c12-12-210-896-230-916c-6-7-170,30-245,55c-204,68-354,188-426,340
		c-49,104-82,122-136,75c-35-30-16-106,54-219c75-120,221-234,385-302c72-29,259-81,294-81c10,0,21-5,24-10c14-22-156-493-233-647
		c-50-99-92-136-187-165c-89-28-258-30-388-4c-234,45-528,175-900,398c-133,80-223,139-584,385c-138,95-385,281-605,457
		c-137,109-177,146-178,164c0,29,80,507,126,752c95,505,187,898,278,1192c73,236,212,590,240,615c74,64,402,247,578,322
		c105,45,310,121,326,121c4,0-35-27-87-60c-203-132-390-291-569-484c-57-62-400-492-427-536c-5-8,9-1,30,16c569,441,593,458,850,584
		c243,120,565,227,769,256c54,7,96,39,96,72c0,11-10,32-22,47c-20,26-25,27-80,21c-144-15-510-121-675-196c-36-17-68-28-70-26
		c-5,5,158,118,244,170c144,86,364,177,498,206c49,11,575,90,597,90c6,0,9,2,6,5s-124,22-269,41c-226,30-281,34-382,29
		c-195-10-438-58-647-130c-41-14-70-21-65-16c48,47,622,361,659,361C4960,12490,5026,12483,5100,12475z M9040,11311c0-5-21-29-46-53
		c-25-23-50-52-54-63c-7-15-9-11-9,21c-1,23-4,56-7,73l-6,31h61C9012,11320,9040,11316,9040,11311z M8789,11059l1-56l175-5
		c96-2,177-7,181-10c3-4-13-37-35-73c-22-37-45-83-51-101l-12-34h-214h-214v151v152l78,72l77,73l6-57
		C8785,11140,8788,11090,8789,11059z M8342,10899c21-11,48-66,48-99c0-19-6-20-160-20s-160,1-160,20c0,45,28,89,62,99
		C8178,10912,8317,10912,8342,10899z M10333,10798c110-58,219-218,291-426c44-127,45-146,3-66c-136,260-350,330-523,171
		c-143-130-226-350-240-637c-19-377,106-714,308-825c46-26,63-30,128-30c61,0,84,5,126,27c65,34,151,127,194,211c19,36,36,64,38,63
		c6-6-51-171-83-241c-65-143-166-264-259-310c-58-29-146-34-202-10c-181,75-331,346-395,710c-18,107-23,167-23,335s5,228,23,335
		c50,287,173,557,296,651c29,22,42,24,137,24c76,0,109,4,124,15C10299,10813,10306,10813,10333,10798z M9830,10774c0-4-20-37-45-74
		c-176-265-264-712-225-1135c43-456,204-793,456-952c26-16-672-18-730-2c-23,6-60,30-89,58l-50,48l23,31c18,24,21,38,16,66
		c-8,41-36,64-89,73c-21,3-42,13-47,24c-6,10-24,71-41,136c-25,98-29,129-23,180c5,51,3,68-11,89c-45,70-42,582,5,739
		c4,17,14,59,20,95c16,90,63,228,112,326c75,152,182,267,272,293C9418,10779,9830,10784,9830,10774z M8030,10543
		c-105-158-170-460-170-790c0-49-4-83-10-83c-5,0-10,22-10,50c0,38-5,54-22,69c-30,29-84,44-129,37c-37-6-38-5-45,29
		c-3,19-15,47-27,61c-20,26-20,28-4,143c31,218,79,350,158,436c66,71,138,102,246,104l51,1L8030,10543z M8540,10590
		c79,5,430,10,430,7c0-2-14-35-32-73c-17-38-50-127-73-199l-43-130l-96-3l-97-3l-38-38c-83-83-130-235-138-451
		c-10-264,37-428,142-499c30-20,53-26,122-29c50-3,86-9,88-16c2-6,15-63,30-126s29-121,32-127c4-10-45-13-225-13
		c-215,0-230,1-247,20c-24,26-47,33-77,21c-20-8-35-4-75,19c-88,51-161,150-196,267c-9,28-20,60-25,70c-6,11-6,40-1,73
		c5,30,13,190,18,355c14,439,52,623,159,763c58,77,174,127,267,116C8493,10591,8526,10589,8540,10590z M10354,10406
		c86-36,167-170,213-353c25-98,27-125,27-288c-1-162-4-190-28-280c-34-130-83-232-141-294c-81-87-149-91-234-15
		c-132,119-212,433-183,717c21,198,80,362,165,454C10237,10417,10288,10434,10354,10406z M8783,9948c-5-40-8-191-8-336v-262h-46
		c-43,0-48,3-62,33c-29,59-39,130-39,262c0,171,28,304,74,363c6,6,28,12,49,12h39L8783,9948z M7431,9639c-37-113-86-356-101-498
		c-15-155-21-141,60-141s73-14,90,155c15,146,32,224,69,321c30,77,102,194,121,194c4,0,0-22-10-49c-40-104-80-386-80-561
		c0-99-9-91,82-69c48,12,64,41,88,167c27,142,107,341,131,326c13-8,7-66-26-259c-48-273-118-523-175-623c-50-85-142-140-221-129
		l-39,5l-20-71c-48-166-136-424-205-597c-376-949-866-1593-1400-1840c-177-82-349-120-547-120c-581,0-1147,267-1662,783l-138,140
		l6,39c34,211,258,337,601,338h120l98-105c236-251,487-393,812-457c158-31,426-31,572,0c191,41,361,114,511,218c35,24,74,44,88,44
		c27,0,74,40,74,63c0,7,44,58,98,113c276,282,527,717,683,1184c22,63,46,127,54,142c8,14,15,50,15,81c0,57-12,80-49,92
		c-23,7-74,123-103,230c-23,87-25,228-3,310c21,79,26,81,19,8c-8-69-7-70,81-75l50-2l8,49c4,28,24,140,43,250c47,260,78,344,163,438
		c34,38,35,38,54,19S7462,9731,7431,9639z M8000,8929c0-6-46-29-59-29c-5,0-4,20,2,45l11,46l22-28C7989,8948,7999,8932,8000,8929z
		 M3000,8794c52-42,139-111,194-153l99-76l-104-7c-141-8-294-49-410-109c-44-22-45-22-29,62c9,51,138,359,149,359
		C2902,8870,2948,8836,3000,8794z M7847,8578c-133-397-299-719-480-929c-36-41-82-88-102-103l-36-28l16,39c65,151,172,437,221,590
		l59,183l50,14c56,17,126,60,167,103c42,44,96,141,120,216c12,38,24,64,26,58C7890,8716,7871,8651,7847,8578z M8236,8693
		c-2-10-21-81-41-158c-46-181-140-460-205-617c-237-563-547-919-905-1036c-87-29-205-50-205-37c0,4,21,41,47,83
		c25,42,79,139,118,215l73,139l76,42c308,168,586,598,791,1223c25,76,47,144,50,151c3,8,34,12,105,12C8232,8710,8241,8708,8236,8693
		z M2645,8691c10-17-9-20-30-5c-18,14-18,14,2,14C2629,8700,2641,8696,2645,8691z M2455,8670c-3-5-16-10-28-10c-18,0-19,2-7,10
		C2440,8683,2463,8683,2455,8670z M3445,8385c233-69,388-193,484-389c43-86,115-290,109-308c-2-5-14,21-27,59
		c-119,346-402,587-691,587c-105,0-172-16-277-64c-95-44-158-99-211-184c-37-57-91-178-93-208c-1-7-5,5-10,27c-4,22-8,111-8,197
		l-1,157l44,26c71,42,214,96,306,116C3186,8427,3323,8421,3445,8385z M3452,8172c87-29,147-69,228-152c76-77,141-178,182-281
		c70-175,106-254,154-340c30-54,54-99,54-102c0-2-51-7-112-10c-346-17-588-185-644-446c-22-105-21-108,61-209c41-51,75-94,75-96
		s-22,2-49,9c-241,63-469,372-546,737c-58,275,0,623,130,775c44,51,87,78,173,109C3244,8196,3371,8199,3452,8172z M4197,7939
		c258-161,586-323,798-394c213-72,466-92,625-51c30,8,57,13,58,11c4-3-38-140-200-649l-50-158l-116,7c-343,20-619,134-853,353
		c-47,44-112,113-144,152l-58,70l-19,133c-22,158-75,381-117,497c-17,46-31,85-31,87C4090,8004,4104,7997,4197,7939z M6530,7369
		c0-21-200-251-270-309l-48-41l-234,97c-128,54-234,98-235,99c-2,1,4,21,12,46c7,24,41,130,75,236l61,191l319-156
		C6386,7445,6530,7372,6530,7369z M5920,6988c80-33,148-63,153-67c10-10-129-88-229-128c-92-37-242-78-251-69c-4,3,15,75,42,159
		c69,221,58,200,102,181C5758,7056,5840,7021,5920,6988z M2912,6773c65-100,149-194,220-248c70-53,183-109,241-120c20-4,37-12,37-17
		c0-18-117-255-175-355c-77-130-209-324-308-451c-44-56-81-101-82-100c-2,2,0,66,4,143c12,264-13,475-70,587c-15,28-22,58-20,87
		c1,29-3,49-15,62c-15,17-16,36-10,182c3,89,13,236,21,327s15,167,15,170s22-41,49-97S2888,6810,2912,6773z M3666,6339
		c32-29,60-57,62-63c5-24-404-550-623-801c-131-150-367-406-371-402c-2,2,6,27,17,57c14,36,47,83,105,149c289,323,534,695,664,1005
		C3573,6411,3580,6414,3666,6339z M3998,6109c163-109,411-232,577-288c117-39,297-82,403-96c28-4,52-9,52-11s-21-50-46-106
		c-59-131-126-303-152-393c-37-122-52-214-78-460c-31-304-40-357-59-368c-8-4-63-46-121-93c-59-46-137-103-174-124
		c-195-117-542-213-900-251c-157-17-603-17-770,0c-133,13-381,48-387,55c-3,2,0,64,6,138c6,73,16,194,21,268l9,135l294,295
		c452,455,772,825,1083,1254c55,75,100,136,102,136C3859,6200,3922,6159,3998,6109z M6220,4310c164-13,316-31,330-40
		c9-6,3-59-24-206c-90-493-158-839-170-858c-8-12-19-50-26-86c-12-64-110-372-130-410c-10-19-23-20-246-20c-354,0-567-18-1004-85
		c-557-85-720-100-1110-100c-262,0-347,4-440,18c-403,63-690,189-922,407c-94,87-130,145-154,246c-18,79-22,261-10,478l8,139l47-6
		c25-4,98-13,161-21c204-27,350-36,598-36c412,0,711,42,1037,147c210,67,369,154,529,288c44,36,88,71,99,77c29,15,372,53,647,72
		C5554,4321,6108,4319,6220,4310z M6530,2998c0-8-531-2627-560-2766l-12-52H4917H3875l3,80c6,120-16,179-95,257l-62,62l117,36
		c220,67,847,277,1007,337c364,136,632,255,775,345c64,41,157,128,206,195c159,215,190,433,99,705c-19,56-56,149-83,206l-50,105
		l50,4c28,3,133,3,234,0c217-6,217-6,268,97c27,52,111,291,141,398C6489,3020,6530,3013,6530,2998z M5662,2373c33-69,76-174,96-232
		c33-97,36-115,36-223c1-66-3-121-9-127c-6-5-170-14-370-20c-198-6-390-14-427-17c-52-4-73-2-90,10c-28,20-77,20-105,1
		c-32-22-575-44-582-24c-10,30-193,392-241,478c-29,51-50,94-48,96s82,8,178,14s254,20,351,31c165,18,256,31,684,94
		c199,30,315,43,403,45l63,1L5662,2373z"/>
	<path class="st0" d="M5825,11736c-166-80-312-233-401-420c-33-68-35-77-22-103c7-15,25-32,40-37c45-16,72,5,112,86
		c77,156,197,281,333,345c40,19,77,41,84,49c20,25,15,75-10,96C5929,11777,5904,11775,5825,11736z"/>
	<path class="st0" d="M5754,11146c-76-34-127-141-127-266c0-101,24-171,78-226c89-89,196-64,260,61c28,54,30,66,30,164
		c0,96-3,111-28,164c-16,31-44,69-63,83C5863,11158,5798,11166,5754,11146z M5840,10978c26-57,25-140,0-197c-17-36-23-41-35-31
		c-39,32-47,190-12,243c10,15,20,27,23,27S5830,11001,5840,10978z"/>
	<path class="st0" d="M3830,11026c-135-36-252-185-294-373c-19-87-21-250-2-318c42-158,128-236,258-234c111,1,177,43,162,103
		c-11,47-42,59-111,45c-77-16-107-7-137,39c-90,135-44,440,83,555c74,67,158,69,267,6c61-35,73-36,108-8c34,27,35,72,2,103
		c-54,49-187,97-265,95C3887,11039,3855,11033,3830,11026z"/>
	<path class="st0" d="M3843,10798c-18-20-21-35-20-118c0-106-18-165-67-209c-49-45-24-131,39-131c35,0,99,61,130,123
		c50,103,58,294,14,338C3913,10827,3868,10825,3843,10798z"/>
	<path class="st0" d="M9629,12126c-47-36-409-408-447-460c-26-36-23-71,10-98c41-36,61-25,190,110c67,70,176,181,241,247
		c127,129,137,141,137,168c0,24-44,67-68,67C9681,12160,9653,12145,9629,12126z"/>
	<path class="st0" d="M9810,11604c-96-42-202-87-235-101c-65-26-105-62-105-94c0-25,43-69,68-69c30,0,495,206,509,226
		c22,30,16,70-13,93c-15,12-32,21-38,21S9906,11646,9810,11604z"/>
	<path class="st0" d="M9672,11191c-114-6-125-8-143-30c-25-30-24-66,1-91c19-19,33-20,289-20s269,1,295,21c32,25,36,77,6,104
		c-16,15-42,18-172,20C9864,11196,9739,11195,9672,11191z"/>
</g>
</svg>
