<?xml version="1.0" encoding="utf-8"?>
<!-- Generator: Adobe Illustrator 28.2.0, SVG Export Plug-In . SVG Version: 6.00 Build 0)  -->
<svg version="1.1" id="Layer_1" xmlns="http://www.w3.org/2000/svg" xmlns:xlink="http://www.w3.org/1999/xlink" x="0px" y="0px"
	 viewBox="0 0 300 300" style="enable-background:new 0 0 300 300;" xml:space="preserve">
<style type="text/css">
	.st0{fill:none;stroke:#FFFFFF;stroke-width:13;stroke-linecap:round;stroke-linejoin:round;stroke-miterlimit:133.3333;}
	.st1{fill:#FFFFFF;}
</style>
<path class="st0" d="M101.7,93.9c-5.8,8.8-9.5,19.7-9.5,32.2c0,31.4,25.5,57.7,57.7,57.7c31.4,0,57.7-25.5,57.7-57.7
	c0-31.4-25.5-57.7-57.7-57.7v18.9 M149.2,125.3l-25.5-25.5"/>
<g>
	<g>
		<path class="st1" d="M54.6,270.1v-42.9c0-2.9-1.4-5.7-3.7-7.5c-29.3-23-46.3-55.1-46.3-88.9C4.5,64.1,69.4,9.4,150,9.4
			s145.5,54.7,145.5,121.4S230.6,252.1,150,252.1c-8.2,0-17.1-0.7-25.4-2.2c-2.2-0.4-4.4,0-6.3,1.1l-49.4,27.5
			C62.5,282,54.6,277.4,54.6,270.1z M150,29.8c-69.5,0-126,45.4-126,101.9c0,30.6,16.7,59.3,45.4,78.8h0c2.9,1.7,4.6,4.8,4.6,8.2
			v20.1c0,7.3,7.8,11.9,14.2,8.4l26-14.4c2.1-1.2,4.6-1.5,6.9-0.9l0.1,0c9.3,1.9,18.5,2.8,28.7,2.8c69.5,0,126-45.4,126-101.9
			C276,75.2,219.5,29.8,150,29.8z"/>
	</g>
</g>
</svg>
