<?xml version="1.0" encoding="utf-8"?>
<!-- Generator: Adobe Illustrator 28.1.0, SVG Export Plug-In . SVG Version: 6.00 Build 0)  -->
<svg version="1.1" id="Layer_1" xmlns="http://www.w3.org/2000/svg" xmlns:xlink="http://www.w3.org/1999/xlink" x="0px" y="0px"
	 viewBox="0 0 300 300" style="enable-background:new 0 0 300 300;" xml:space="preserve">
<style type="text/css">
	.st0{fill:none;stroke:#FFFFFF;stroke-width:16;stroke-linecap:round;stroke-linejoin:round;stroke-miterlimit:133.3333;}
	.st1{fill:#FFFFFF;}
</style>
<path class="st0" d="M89.8,85.4c-7.4,11.1-12,25-12,40.8c0,39.8,32.4,73.2,73.2,73.2c39.8,0,73.2-32.4,73.2-73.2
	c0-39.8-32.4-73.2-73.2-73.2V77 M150,125.2l-32.4-32.4"/>
<g>
	<g>
		<path class="st1" d="M54.6,286.4v-63.9c-31.5-23.2-50-56.5-50-91.7C4.5,64.1,69.4,9.4,150,9.4s145.5,54.7,145.5,121.4
			S230.6,252.1,150,252.1c-9.3,0-19.5-0.9-28.7-2.8L54.6,286.4z M150,29.8c-69.5,0-126,45.4-126,101.9c0,30.6,16.7,59.3,45.4,78.8
			l4.6,2.8v41.7l43.5-24.1l3.7,0.9c9.3,1.9,18.5,2.8,28.7,2.8c69.5,0,126-45.4,126-101.9C276,75.2,219.5,29.8,150,29.8z"/>
	</g>
</g>
</svg>
